<?xml version="1.0" encoding="UTF-8"?>
<svg version="1.1" xmlns="http://www.w3.org/2000/svg" width="866" height="259">
<path d="M0 0 C285.78 0 571.56 0 866 0 C866 85.47 866 170.94 866 259 C580.22 259 294.44 259 0 259 C0 173.53 0 88.06 0 0 Z " fill="#FDFDFD" transform="translate(0,0)"/>
<path d="M0 0 C4.00727204 0.00570633 8.01447778 0.00229555 12.02174759 -0.00343704 C27.16179905 -0.02183093 42.2893235 0.04350629 57.42138672 0.57568359 C59.12779831 0.63379715 59.12779831 0.63379715 60.86868286 0.69308472 C61.89267181 0.73442535 62.91666077 0.77576599 63.97167969 0.81835938 C65.30850296 0.87215256 65.30850296 0.87215256 66.67233276 0.92703247 C68.67919922 1.13037109 68.67919922 1.13037109 69.67919922 2.13037109 C73.16727457 2.68967245 76.65358878 3.22524188 80.15771484 3.67333984 C86.66339888 4.67768656 89.74267011 7.00438849 94.25341797 11.80615234 C98.18074206 17.58000776 99.03257749 23.85312902 100.10107422 30.61865234 C100.5772379 34.08769185 100.5772379 34.08769185 101.67919922 37.13037109 C101.78190667 38.86530571 101.82766621 40.60387095 101.84033203 42.34179688 C101.84993958 43.40786163 101.85954712 44.47392639 101.8694458 45.57229614 C101.87582062 47.30647293 101.87582062 47.30647293 101.88232422 49.07568359 C101.88802429 50.27409882 101.89372437 51.47251404 101.89959717 52.70724487 C101.90905811 55.2543652 101.91558547 57.80149782 101.91943359 60.34863281 C101.92903949 64.19147213 101.96001084 68.0337534 101.99169922 71.87646484 C102.04837304 84.96321799 101.76518766 97.36982675 98.67919922 110.13037109 C98.51834839 110.82696838 98.35749756 111.52356567 98.19177246 112.24127197 C96.28450945 120.29382906 92.39703265 125.45287137 85.67919922 130.13037109 C63.48211204 141.22891468 29.64295588 136.34491951 5.35742188 136.37060547 C1.83257679 136.37498597 -1.69202297 136.38889433 -5.21679688 136.41162109 C-69.66252949 136.81791387 -69.66252949 136.81791387 -83.50830078 128.13037109 C-85.32080078 126.13037109 -85.32080078 126.13037109 -85.32080078 123.13037109 C-85.98080078 123.13037109 -86.64080078 123.13037109 -87.32080078 123.13037109 C-87.32080078 122.14037109 -87.32080078 121.15037109 -87.32080078 120.13037109 C-87.98080078 120.13037109 -88.64080078 120.13037109 -89.32080078 120.13037109 C-89.81676905 118.28062781 -90.29119656 116.42511323 -90.75830078 114.56787109 C-91.02513672 113.53533203 -91.29197266 112.50279297 -91.56689453 111.43896484 C-94.24669358 98.05839321 -93.47705835 83.87111707 -93.45117188 70.2956543 C-93.44579471 66.93908202 -93.45115544 63.58264253 -93.45751953 60.22607422 C-93.45685891 58.05484997 -93.45557807 55.8836258 -93.45361328 53.71240234 C-93.45563751 52.72770462 -93.45766174 51.7430069 -93.45974731 50.72846985 C-93.3580932 20.03655999 -93.3580932 20.03655999 -85.32080078 11.13037109 C-80.56472 6.74813072 -76.8338284 4.40174724 -70.32080078 4.13037109 C-70.32080078 3.47037109 -70.32080078 2.81037109 -70.32080078 2.13037109 C-63.07354414 1.21980609 -55.87698325 0.81843045 -48.57861328 0.57568359 C-47.32605743 0.533638 -46.07350159 0.49159241 -44.7829895 0.44827271 C-29.8582681 -0.02000246 -14.93066825 -0.02141949 0 0 Z " fill="#FC0202" transform="translate(192.32080078125,54.86962890625)"/>
<path d="M0 0 C2.02578364 1.80515374 3.3655585 3.80517856 5 6 C7.71305777 6.50379029 7.71305777 6.50379029 10 6 C10.226875 5.37738281 10.45375 4.75476563 10.6875 4.11328125 C12.88170792 0.58034528 16.10657132 0.39944049 19.98046875 -0.51953125 C25.8135528 -1.4476934 31.49799719 -1.48807944 36.5 2 C42.87795557 9.65354669 41.26130988 20.97021535 41.1953125 30.41015625 C41.19157592 31.98912882 41.188732 33.56810373 41.18673706 35.14707947 C41.1791513 39.27508095 41.15954711 43.40293859 41.1373291 47.53088379 C41.11676088 51.75429337 41.10771201 55.9777265 41.09765625 60.20117188 C41.07629572 68.46752083 41.04115567 76.73372587 41 85 C35.06 85 29.12 85 23 85 C22.97494385 82.92549561 22.9498877 80.85099121 22.92407227 78.71362305 C22.8406471 71.86435265 22.75195489 65.01515778 22.66066074 58.16598797 C22.60546401 54.0127852 22.55204918 49.85957535 22.50268555 45.70629883 C22.45499409 41.6992001 22.40264951 37.69218686 22.34705925 33.6851902 C22.32665737 32.1553847 22.30794071 30.62555577 22.29092598 29.09570885 C22.26683395 26.95523988 22.23678608 24.81493207 22.20532227 22.67456055 C22.18200584 20.84588692 22.18200584 20.84588692 22.15821838 18.98027039 C22.12935443 15.94558057 22.12935443 15.94558057 21 13 C19.58696762 12.7493981 18.16920526 12.52538079 16.75 12.3125 C15.96109375 12.18488281 15.1721875 12.05726562 14.359375 11.92578125 C11.20611093 12.02497333 10.20632353 12.75672121 8 15 C7.37882006 18.12349407 7.37882006 18.12349407 7.45410156 21.76635742 C7.44376389 22.44954544 7.43342621 23.13273346 7.42277527 23.83662415 C7.39329451 26.09314476 7.3918471 28.34877051 7.390625 30.60546875 C7.37564677 32.17061581 7.35892037 33.73574703 7.34051514 35.30085754 C7.29678862 39.41902381 7.27683102 43.53697687 7.26177979 47.65533447 C7.24222761 51.85824214 7.20025558 56.0609189 7.16015625 60.26367188 C7.0847966 68.50908253 7.03661237 76.75432615 7 85 C1.06 85 -4.88 85 -11 85 C-11.0093457 82.89520264 -11.01869141 80.79040527 -11.02832031 78.62182617 C-11.06206628 71.67265101 -11.1176015 64.72377358 -11.18390274 57.77483654 C-11.22343606 53.56105667 -11.25559552 49.34748759 -11.27099609 45.13354492 C-11.28612455 41.06787508 -11.32050098 37.00278454 -11.36830902 32.93737221 C-11.38316244 31.38526757 -11.39104328 29.83308025 -11.39188385 28.28090477 C-11.39424357 26.1087585 -11.42123787 23.93822627 -11.45410156 21.76635742 C-11.46298401 20.52947678 -11.47186646 19.29259613 -11.48101807 18.01823425 C-11.71902546 14.93083947 -11.71902546 14.93083947 -13.84661865 13.10054016 C-16.77793501 11.60241658 -18.74890043 11.59361255 -22 12 C-24.26558201 13.01247888 -24.26558201 13.01247888 -26 15 C-26.62117994 18.12349407 -26.62117994 18.12349407 -26.54589844 21.76635742 C-26.55623611 22.44954544 -26.56657379 23.13273346 -26.57722473 23.83662415 C-26.60670549 26.09314476 -26.6081529 28.34877051 -26.609375 30.60546875 C-26.62435323 32.17061581 -26.64107963 33.73574703 -26.65948486 35.30085754 C-26.70321138 39.41902381 -26.72316898 43.53697687 -26.73822021 47.65533447 C-26.75777239 51.85824214 -26.79974442 56.0609189 -26.83984375 60.26367188 C-26.9152034 68.50908253 -26.96338763 76.75432615 -27 85 C-32.94 85 -38.88 85 -45 85 C-45 57.28 -45 29.56 -45 1 C-41.98509443 -0.00496852 -39.95818308 -0.10335303 -36.8125 -0.0625 C-35.91144531 -0.05347656 -35.01039063 -0.04445313 -34.08203125 -0.03515625 C-33.39496094 -0.02355469 -32.70789063 -0.01195313 -32 0 C-30 6.75 -30 6.75 -30 9 C-25.41375859 7.93669732 -25.41375859 7.93669732 -22.4375 4.5 C-21.963125 3.675 -21.48875 2.85 -21 2 C-14.70548337 -1.40244142 -6.85540237 -1.9323953 0 0 Z " fill="#070707" transform="translate(727,96)"/>
<path d="M0 0 C4.95 0.495 4.95 0.495 10 1 C10 1.66 10 2.32 10 3 C10.86625 3.0309375 10.86625 3.0309375 11.75 3.0625 C15.28736946 4.53640394 16.57710803 7.61241325 18 11 C18.3533737 13.73801846 18.51116916 16.05105824 18.45410156 18.77124023 C18.45468567 19.51353378 18.45526978 20.25582733 18.45587158 21.02061462 C18.45310643 23.45043303 18.42209145 25.87899228 18.390625 28.30859375 C18.38315697 30.00252106 18.37746669 31.69645705 18.37347412 33.39039612 C18.35826193 37.83096516 18.31901885 42.27100399 18.2746582 46.71136475 C18.2336097 51.24956085 18.21544273 55.78784331 18.1953125 60.32617188 C18.15251959 69.21771736 18.08220653 78.10873147 18 87 C12.39 87 6.78 87 1 87 C1 63.9 1 40.8 1 17 C0.34 17 -0.32 17 -1 17 C-1 16.34 -1 15.68 -1 15 C-6.62098845 13.8191398 -6.62098845 13.8191398 -11.9375 15.375 C-13.87569527 16.83642269 -13.87569527 16.83642269 -15 18 C-15.12396871 20.14668285 -15.1780072 22.29742387 -15.20532227 24.44750977 C-15.21522186 25.12065216 -15.22512146 25.79379456 -15.23532104 26.48733521 C-15.26701838 28.72198925 -15.29172574 30.95666458 -15.31640625 33.19140625 C-15.33696869 34.73697984 -15.35796496 36.28254772 -15.37937927 37.82810974 C-15.43467337 41.90350732 -15.48405013 45.97895625 -15.53222656 50.05444336 C-15.58238817 54.2101704 -15.63810204 58.36582252 -15.69335938 62.52148438 C-15.80103066 70.68092806 -15.90194271 78.84043511 -16 87 C-21.61 87 -27.22 87 -33 87 C-33 63.9 -33 40.8 -33 17 C-33.66 17 -34.32 17 -35 17 C-35 16.34 -35 15.68 -35 15 C-35.66 15 -36.32 15 -37 15 C-37 14.34 -37 13.68 -37 13 C-38.46015291 13.28241641 -39.91809793 13.57626614 -41.375 13.875 C-42.59316406 14.11863281 -42.59316406 14.11863281 -43.8359375 14.3671875 C-46.18673923 14.86658932 -46.18673923 14.86658932 -48 17 C-48.33311876 20.03576169 -48.33311876 20.03576169 -48.31884766 23.65283203 C-48.32889328 24.33587402 -48.3389389 25.01891602 -48.34928894 25.72265625 C-48.3802237 27.98436629 -48.39718423 30.24595744 -48.4140625 32.5078125 C-48.43276592 34.07438182 -48.4523387 35.64094099 -48.4727478 37.20748901 C-48.52416252 41.33382183 -48.56373803 45.46018734 -48.60089111 49.58666992 C-48.64087241 53.7961441 -48.69199146 58.00548118 -48.7421875 62.21484375 C-48.83905737 70.47647596 -48.92239742 78.73816432 -49 87 C-54.94 87 -60.88 87 -67 87 C-67 58.95 -67 30.9 -67 2 C-62.71 2 -58.42 2 -54 2 C-52 8 -52 8 -52 11 C-50.35 11 -48.7 11 -47 11 C-47 10.34 -47 9.68 -47 9 C-46.34 9 -45.68 9 -45 9 C-44.95875 8.236875 -44.9175 7.47375 -44.875 6.6875 C-44 4 -44 4 -41.421875 2.359375 C-37.52305792 0.81052986 -34.56044173 0.56669383 -30.375 0.5625 C-28.43753906 0.53349609 -28.43753906 0.53349609 -26.4609375 0.50390625 C-22.49866871 1.07186126 -21.39177624 1.87451462 -19 5 C-17.75 7.25 -17.75 7.25 -17 9 C-15.02 9 -13.04 9 -11 9 C-10.938125 8.21625 -10.87625 7.4325 -10.8125 6.625 C-10 4 -10 4 -7.75 2.6875 C-5.03756762 2.0093919 -2.78200967 1.84102802 0 2 C0 1.34 0 0.68 0 0 Z " fill="#070707" transform="translate(558,94)"/>
<path d="M0 0 C35 0 35 0 39 1 C39 1.66 39 2.32 39 3 C39.86625 3 40.7325 3 41.625 3 C47.12056066 4.62831427 49.3086826 9.12356936 52.109375 13.88671875 C54.85049514 20.39086785 54.21895638 27.89365327 54.25 34.8125 C54.270625 35.95009766 54.29125 37.08769531 54.3125 38.25976562 C54.36286378 49.16981979 52.03168575 58.62199736 44.3671875 66.7265625 C35.52803551 74.77296544 29.87728927 74 17 74 C17 87.86 17 101.72 17 116 C11.39 116 5.78 116 0 116 C0 77.72 0 39.44 0 0 Z " fill="#050505" transform="translate(327,65)"/>
<path d="M0 0 C0.83273437 -0.00773437 1.66546875 -0.01546875 2.5234375 -0.0234375 C8.29922006 -0.00504329 12.22457359 0.62406784 16.9375 4.1875 C24.10786744 13.19642319 23.88832563 23.45880197 23.625 34.4375 C23.5425 39.325625 23.46 44.21375 23.375 49.25 C12.815 49.25 2.255 49.25 -8.625 49.25 C-8.50125 52.42625 -8.3775 55.6025 -8.25 58.875 C-8.21600098 59.8645166 -8.18200195 60.8540332 -8.14697266 61.87353516 C-7.93273329 66.66920087 -7.46485064 70.74760128 -5.625 75.25 C-2.655 75.25 0.315 75.25 3.375 75.25 C3.375 74.59 3.375 73.93 3.375 73.25 C4.035 73.25 4.695 73.25 5.375 73.25 C5.55675781 72.07630859 5.55675781 72.07630859 5.7421875 70.87890625 C5.90976562 69.86699219 6.07734375 68.85507813 6.25 67.8125 C6.41242188 66.80316406 6.57484375 65.79382813 6.7421875 64.75390625 C6.95101562 63.92761719 7.15984375 63.10132813 7.375 62.25 C10.25915883 60.80792059 12.79221528 61.15605113 16 61.1875 C17.18851562 61.19652344 18.37703125 61.20554688 19.6015625 61.21484375 C20.51679688 61.22644531 21.43203125 61.23804688 22.375 61.25 C22.8265158 68.6247581 21.68720126 73.56760541 17.6875 79.9375 C12.55618591 85.06881409 5.92413961 87.3597888 -1.25 87.5 C-7.1195847 87.43913023 -13.75963859 86.62630629 -18.41015625 82.76953125 C-19.625 81.25 -19.625 81.25 -19.625 79.25 C-20.285 79.25 -20.945 79.25 -21.625 79.25 C-24.86745019 70.84910632 -26.93421351 63.87416251 -26.890625 54.84375 C-26.89349518 53.51845276 -26.89349518 53.51845276 -26.89642334 52.16638184 C-26.89777801 50.30737013 -26.89413202 48.44834874 -26.88574219 46.58935547 C-26.87503243 43.75857104 -26.88566196 40.92842115 -26.8984375 38.09765625 C-26.89711578 36.28385278 -26.89455312 34.4700497 -26.890625 32.65625 C-26.89467346 31.81751343 -26.89872192 30.97877686 -26.90289307 30.11462402 C-26.84699606 23.04159895 -25.19264142 17.36459413 -22.5 10.8125 C-22.14679688 9.94753906 -21.79359375 9.08257812 -21.4296875 8.19140625 C-21.16414063 7.55074219 -20.89859375 6.91007812 -20.625 6.25 C-19.965 6.25 -19.305 6.25 -18.625 6.25 C-18.439375 5.63125 -18.25375 5.0125 -18.0625 4.375 C-16.29179219 1.75743193 -14.71990661 1.4146333 -11.7355957 0.63818359 C-7.8348406 -0.07924852 -3.95452783 -0.0370737 0 0 Z " fill="#090909" transform="translate(456.625,95.75)"/>
<path d="M0 0 C5.61 0 11.22 0 17 0 C17.33 23.76 17.66 47.52 18 72 C19.485 72.495 19.485 72.495 21 73 C21 73.66 21 74.32 21 75 C22.8871875 74.7834375 22.8871875 74.7834375 24.8125 74.5625 C25.52019531 74.48128906 26.22789062 74.40007812 26.95703125 74.31640625 C29.19396393 74.02829265 29.19396393 74.02829265 32 73 C32.33 49.24 32.66 25.48 33 1 C38 0 38 0 50 1 C50 28.72 50 56.44 50 85 C45.38 85 40.76 85 36 85 C34 80 34 80 34 76 C33.34 76.721875 32.68 77.44375 32 78.1875 C26.53861091 83.49718384 22.19766425 86.31316259 14.375 86.625 C10.31137514 86.46925131 7.43353413 86.224187 4.1875 83.6875 C2 81 2 81 2 78 C1.34 78 0.68 78 0 78 C-1.11333548 69.475564 -1.14662889 60.98217954 -1.1328125 52.40234375 C-1.13348735 50.91687504 -1.13445888 49.43140644 -1.13571167 47.94593811 C-1.13717599 44.85563083 -1.13507236 41.76535269 -1.13037109 38.67504883 C-1.1246293 34.70706122 -1.12798861 30.7391406 -1.13394356 26.77115536 C-1.1375452 23.71466052 -1.13641321 20.65818178 -1.13381577 17.60168648 C-1.13314771 16.13719233 -1.13397069 14.67269673 -1.13629532 13.20820427 C-1.1388201 11.17387798 -1.13429317 9.13954657 -1.12939453 7.10522461 C-1.12859894 5.94735947 -1.12780334 4.78949432 -1.12698364 3.59654236 C-1 1 -1 1 0 0 Z " fill="#070707" transform="translate(619,96)"/>
<path d="M0 0 C0.0543965 2.37531394 0.09385864 4.74935883 0.125 7.125 C0.14175781 7.79015625 0.15851563 8.4553125 0.17578125 9.140625 C0.21847278 13.49516056 -0.40003783 16.95600114 -2 21 C-2.81984375 21.03738281 -3.6396875 21.07476562 -4.484375 21.11328125 C-5.56203125 21.17902344 -6.6396875 21.24476562 -7.75 21.3125 C-8.81734375 21.37050781 -9.8846875 21.42851563 -10.984375 21.48828125 C-14.34063309 22.05780173 -15.60753178 22.6157799 -18 25 C-18.61877842 27.75618347 -18.61877842 27.75618347 -18.54589844 30.94018555 C-18.57547638 32.77174446 -18.57547638 32.77174446 -18.60565186 34.64030457 C-18.60749481 36.61852959 -18.60749481 36.61852959 -18.609375 38.63671875 C-18.62435513 40.00008614 -18.64108194 41.36343538 -18.65948486 42.72676086 C-18.70319063 46.31227445 -18.72316416 49.89754327 -18.73822021 53.48327637 C-18.75778004 57.14329523 -18.79975115 60.80304928 -18.83984375 64.46289062 C-18.91518082 71.64188941 -18.96337887 78.8206802 -19 86 C-24.61 86 -30.22 86 -36 86 C-36.02293115 78.59147325 -36.04112885 71.18296046 -36.05181217 63.77440643 C-36.05694916 60.33136132 -36.06387097 56.88834249 -36.07543945 53.4453125 C-36.1204754 39.65375152 -36.1068247 25.87642364 -35.55859375 12.09375 C-35.51960464 11.07889526 -35.48061554 10.06404053 -35.44044495 9.01843262 C-35.39878708 8.1016272 -35.35712921 7.18482178 -35.31420898 6.24023438 C-35.27794907 5.44049194 -35.24168915 4.64074951 -35.20433044 3.81677246 C-35 2 -35 2 -34 1 C-32.35659133 0.90145345 -30.7088539 0.87027589 -29.0625 0.875 C-28.16660156 0.87242188 -27.27070313 0.86984375 -26.34765625 0.8671875 C-24 1 -24 1 -22 2 C-21.53193355 4.33744294 -21.17330206 6.69739079 -20.875 9.0625 C-20.70742188 10.35285156 -20.53984375 11.64320312 -20.3671875 12.97265625 C-20.24601562 13.97167969 -20.12484375 14.97070312 -20 16 C-17.02873292 13.28922757 -16.11756266 10.86848614 -15 7 C-14.34 7 -13.68 7 -13 7 C-13 5.68 -13 4.36 -13 3 C-8.72816203 0.15210802 -5.07638947 0 0 0 Z " fill="#080808" transform="translate(426,95)"/>
<path d="M0 0 C3.49494898 0.87373724 5.66617401 1.77612212 8.75 3.5 C9.71164063 4.03625 10.67328125 4.5725 11.6640625 5.125 C12.76492187 5.74375 13.86578125 6.3625 15 7 C16.31995308 7.7298171 17.640284 8.45895112 18.9609375 9.1875 C25.45089053 12.7836777 31.78942204 16.42091507 37.89453125 20.6484375 C41.7420212 23.1182548 45.87017684 25.05148218 50 27 C49.65625 29.41015625 49.65625 29.41015625 49 32 C46.5 33.4375 46.5 33.4375 43 35 C40.74611636 36.45294999 38.54497598 37.96871236 36.34375 39.5 C33.6504995 41.22368032 30.87318492 42.59765504 28 44 C21.05879353 47.59688616 14.3300633 51.18804325 8.09765625 55.93359375 C6 57 6 57 0 57 C0 38.19 0 19.38 0 0 Z " fill="#FEFAFA" transform="translate(176,94)"/>
<path d="M0 0 C1.76582363 1.76582363 1.11985561 4.10371999 1.12442017 6.45516968 C1.12082489 7.23703644 1.11722961 8.0189032 1.11352539 8.82446289 C1.11367142 9.64390884 1.11381744 10.4633548 1.1139679 11.30763245 C1.11326852 14.02933353 1.10547501 16.75096705 1.09765625 19.47265625 C1.09579216 21.35452741 1.09436821 23.23639906 1.09336853 25.11827087 C1.08954267 30.08148529 1.07971181 35.04467064 1.06866455 40.00787354 C1.0584519 45.06839606 1.05387122 50.12892327 1.04882812 55.18945312 C1.03808959 65.12631694 1.02049225 75.06315151 1 85 C-4.61 85 -10.22 85 -16 85 C-16 57.28 -16 29.56 -16 1 C-5 0 -5 0 0 0 Z " fill="#060606" transform="translate(605,96)"/>
<path d="M0 0 C1.60543234 -0.01692502 3.21091611 -0.02902012 4.81640625 -0.0390625 C6.15747437 -0.04993896 6.15747437 -0.04993896 7.52563477 -0.06103516 C10.54459921 0.01343363 12.4679195 0.31194633 15 2 C17.95069371 6.37516653 18.31241757 9.79304044 18 15 C18.66 15 19.32 15 20 15 C20.02720824 17.68756955 20.0469388 20.37485798 20.0625 23.0625 C20.07087891 23.81466797 20.07925781 24.56683594 20.08789062 25.34179688 C20.10808341 30.00633118 19.77595959 34.39923173 19 39 C18.34 39 17.68 39 17 39 C17 40.32 17 41.64 17 43 C16.34 43 15.68 43 15 43 C14.773125 43.598125 14.54625 44.19625 14.3125 44.8125 C12.59193332 47.68011113 11.03468112 48.62059949 8 50 C4.8125 50.3125 4.8125 50.3125 2 50 C0 48 0 48 -0.24050903 45.93722534 C-0.23606781 45.08895172 -0.23162659 44.2406781 -0.22705078 43.36669922 C-0.22689972 42.40585419 -0.22674866 41.44500916 -0.22659302 40.45504761 C-0.21627045 39.41542877 -0.20594788 38.37580994 -0.1953125 37.3046875 C-0.1924826 36.24210724 -0.18965271 35.17952698 -0.18673706 34.08474731 C-0.17551639 30.68138501 -0.15040837 27.27828314 -0.125 23.875 C-0.11497264 21.57161838 -0.10584637 19.26823264 -0.09765625 16.96484375 C-0.07557093 11.30980655 -0.04207489 5.65492187 0 0 Z " fill="#F4F4F4" transform="translate(344,78)"/>
<path d="M0 0 C2.31 0 4.62 0 7 0 C9.00962483 2.14424084 10.24512114 3.82137455 11.6875 6.3125 C12.29827393 7.29802856 12.29827393 7.29802856 12.92138672 8.3034668 C13.81157049 9.74195701 14.69166122 11.18672895 15.56298828 12.63671875 C17.10403875 15.17110009 18.69924793 17.66472011 20.30859375 20.15625 C24.95408806 27.37390259 24.95408806 27.37390259 26.7265625 30.17578125 C27.16564941 30.86583252 27.60473633 31.55588379 28.05712891 32.2668457 C29 34 29 34 29 36 C29.66 36 30.32 36 31 36 C31 24.12 31 12.24 31 0 C32.65 0 34.3 0 36 0 C36 15.51 36 31.02 36 47 C30 47 30 47 28.17651367 45.21850586 C27.67869385 44.39229736 27.18087402 43.56608887 26.66796875 42.71484375 C26.09626953 41.78994141 25.52457031 40.86503906 24.93554688 39.91210938 C24.35869141 38.93048828 23.78183594 37.94886719 23.1875 36.9375 C22.62224609 36.01388672 22.05699219 35.09027344 21.47460938 34.13867188 C19.62637188 31.10656892 17.81411009 28.05264389 16 25 C13.03 20.05 10.06 15.1 7 10 C6.67 22.54 6.34 35.08 6 48 C4.02 48 2.04 48 0 48 C0 32.16 0 16.32 0 0 Z " fill="#111111" transform="translate(821,16)"/>
<path d="M0 0 C0.66 0.33 1.32 0.66 2 1 C2 1.66 2 2.32 2 3 C2.66 3 3.32 3 4 3 C6.39010478 7.69450858 6.33302231 12.04460809 6.3125 17.1875 C6.32861328 18.00669922 6.34472656 18.82589844 6.36132812 19.66992188 C6.36328125 22.04296875 6.36328125 22.04296875 6 26 C2.64802157 28.23465229 1.42208754 28.27108649 -2.5 28.25 C-3.93859375 28.25773437 -3.93859375 28.25773437 -5.40625 28.265625 C-8 28 -8 28 -11 26 C-11.66319894 22.41672211 -11.46291956 18.76230775 -11.4375 15.125 C-11.45748047 14.11824219 -11.47746094 13.11148438 -11.49804688 12.07421875 C-11.4931721 4.73280453 -11.4931721 4.73280453 -9.19921875 1.32421875 C-6.05111968 -0.57135067 -3.59887951 -0.33322958 0 0 Z " fill="#F0F0F0" transform="translate(458,107)"/>
<path d="M0 0 C0.94746094 -0.01675781 1.89492188 -0.03351562 2.87109375 -0.05078125 C6.07955308 0.38229091 7.40483749 0.88827312 9.5625 3.3125 C10.0234375 6.30859375 10.0234375 6.30859375 9.9375 9.75 C9.91816406 11.44962891 9.91816406 11.44962891 9.8984375 13.18359375 C9.57700697 16.1773828 9.3004832 17.88264451 7.5625 20.3125 C4.56095482 22.36550493 2.02425348 22.58391345 -1.5625 22.5625 C-2.86574219 22.57023437 -2.86574219 22.57023437 -4.1953125 22.578125 C-6.4375 22.3125 -6.4375 22.3125 -8.4375 20.3125 C-10.2436879 14.90536786 -10.23526379 7.70579138 -8.4375 2.3125 C-5.11533762 0.09772508 -3.88716677 0.01582293 0 0 Z " fill="#0A0A0A" transform="translate(597.4375,62.6875)"/>
<path d="M0 0 C1.98 0 3.96 0 6 0 C6 15.84 6 31.68 6 48 C4.35 48 2.7 48 1 48 C0 47 0 47 -0.12025452 45.09544373 C-0.11803391 44.26271439 -0.11581329 43.42998505 -0.11352539 42.57202148 C-0.11344986 41.63112167 -0.11337433 40.69022186 -0.11329651 39.72080994 C-0.10813522 38.69790359 -0.10297394 37.67499725 -0.09765625 36.62109375 C-0.0962413 35.57929459 -0.09482635 34.53749542 -0.09336853 33.46412659 C-0.0877508 30.12188906 -0.0751953 26.77971743 -0.0625 23.4375 C-0.05748728 21.17773534 -0.05292398 18.91796963 -0.04882812 16.65820312 C-0.03777561 11.10544609 -0.02102024 5.55272775 0 0 Z " fill="#1C1C1C" transform="translate(801,16)"/>
<path d="M0 0 C0 0.33 0 0.66 0 1 C-0.928125 1.268125 -1.85625 1.53625 -2.8125 1.8125 C-6.51824865 3.17551242 -6.51824865 3.17551242 -9 6 C-9.47563563 9.0487338 -9.47563563 9.0487338 -9.43237305 12.58276367 C-9.4425647 13.24644455 -9.45275635 13.91012543 -9.46325684 14.59391785 C-9.49342625 16.78535357 -9.50265828 18.9763525 -9.51171875 21.16796875 C-9.52856261 22.68827268 -9.54671246 24.20856265 -9.56611633 25.72883606 C-9.61365474 29.72858318 -9.643439 33.72827374 -9.66955566 37.72821045 C-9.69934199 41.81045707 -9.74587887 45.89250873 -9.79101562 49.97460938 C-9.87709234 57.98297722 -9.94441793 65.99136274 -10 74 C-10.33 74 -10.66 74 -11 74 C-11.11585057 64.94232431 -11.20469265 55.88490363 -11.25906086 46.82664871 C-11.28515511 42.62049441 -11.32054887 38.41484695 -11.37719727 34.20898438 C-11.43152494 30.15002208 -11.46142183 26.09154726 -11.47438622 22.03224945 C-11.48362491 20.48363316 -11.50166646 18.93504357 -11.52865028 17.38663483 C-11.56495412 15.21713121 -11.56994531 13.04964131 -11.56762695 10.87988281 C-11.57873001 9.64522278 -11.58983307 8.41056274 -11.60127258 7.13848877 C-11 4 -11 4 -8.67155457 1.58563232 C-5.52413008 -0.28244032 -3.59972342 -0.33485799 0 0 Z " fill="#E0E0E0" transform="translate(711,107)"/>
<path d="M0 0 C-1.875 3.875 -1.875 3.875 -3 5 C-3.12391682 7.11605096 -3.17799906 9.23621283 -3.20532227 11.35571289 C-3.21522186 12.01910172 -3.22512146 12.68249054 -3.23532104 13.36598206 C-3.26701737 15.56816995 -3.29172534 17.77037945 -3.31640625 19.97265625 C-3.33696878 21.49580968 -3.35796505 23.01895731 -3.37937927 24.542099 C-3.43467247 28.55831214 -3.48404963 32.57457738 -3.53222656 36.59088135 C-3.58238882 40.68628599 -3.63810236 44.78161461 -3.69335938 48.87695312 C-3.80102954 56.91790455 -3.90245467 64.95891941 -4 73 C-4.33 73 -4.66 73 -5 73 C-5.06946571 63.92498432 -5.12279367 54.85005995 -5.15543652 45.77483654 C-5.17110231 41.56097724 -5.19235703 37.34729964 -5.22631836 33.13354492 C-5.25887957 29.06813581 -5.27684613 25.00290164 -5.28463173 20.93737221 C-5.2901811 19.38518837 -5.30101755 17.83301427 -5.31719017 16.28090477 C-5.33892207 14.10917741 -5.3419688 11.93817576 -5.34057617 9.76635742 C-5.34723801 8.52947678 -5.35389984 7.29259613 -5.36076355 6.01823425 C-5 3 -5 3 -3.60371399 1.07710266 C-2 0 -2 0 0 0 Z " fill="#E3E3E3" transform="translate(739,108)"/>
<path d="M0 0 C-1.875 3.875 -1.875 3.875 -3 5 C-3.12391682 7.11605096 -3.17799906 9.23621283 -3.20532227 11.35571289 C-3.21522186 12.01910172 -3.22512146 12.68249054 -3.23532104 13.36598206 C-3.26701737 15.56816995 -3.29172534 17.77037945 -3.31640625 19.97265625 C-3.33696878 21.49580968 -3.35796505 23.01895731 -3.37937927 24.542099 C-3.43467247 28.55831214 -3.48404963 32.57457738 -3.53222656 36.59088135 C-3.58238882 40.68628599 -3.63810236 44.78161461 -3.69335938 48.87695312 C-3.80102954 56.91790455 -3.90245467 64.95891941 -4 73 C-4.33 73 -4.66 73 -5 73 C-5.06946571 63.92498432 -5.12279367 54.85005995 -5.15543652 45.77483654 C-5.17110231 41.56097724 -5.19235703 37.34729964 -5.22631836 33.13354492 C-5.25887957 29.06813581 -5.27684613 25.00290164 -5.28463173 20.93737221 C-5.2901811 19.38518837 -5.30101755 17.83301427 -5.31719017 16.28090477 C-5.33892207 14.10917741 -5.3419688 11.93817576 -5.34057617 9.76635742 C-5.34723801 8.52947678 -5.35389984 7.29259613 -5.36076355 6.01823425 C-5 3 -5 3 -3.60371399 1.07710266 C-2 0 -2 0 0 0 Z " fill="#EBEBEB" transform="translate(514,108)"/>
<path d="M0 0 C3.73579644 2.71694286 4.15107314 6.73087741 5 11 C5.309375 12.485 5.309375 12.485 5.625 14 C6.08836528 17.70692226 6.06439344 21.26518043 6 25 C5.67 25 5.34 25 5 25 C3.176679 18.84629161 2.7638041 13.40353322 3 7 C2.34 7 1.68 7 1 7 C0.67 4.69 0.34 2.38 0 0 Z " fill="#E22928" transform="translate(286,68)"/>
<path d="M0 0 C0.68835938 0.01353516 1.37671875 0.02707031 2.0859375 0.04101562 C3.76597001 0.0760163 5.4455935 0.12981046 7.125 0.1875 C7.125 0.5175 7.125 0.8475 7.125 1.1875 C6.10019531 1.30867188 5.07539062 1.42984375 4.01953125 1.5546875 C2.65881021 1.72360459 1.2981355 1.8928952 -0.0625 2.0625 C-1.07280273 2.18044922 -1.07280273 2.18044922 -2.10351562 2.30078125 C-5.96018667 2.78992002 -9.40215277 3.39845749 -12.875 5.1875 C-13.76193303 7.22855639 -13.76193303 7.22855639 -13.875 9.1875 C-14.865 8.8575 -15.855 8.5275 -16.875 8.1875 C-16.215 8.1875 -15.555 8.1875 -14.875 8.1875 C-14.83375 7.424375 -14.7925 6.66125 -14.75 5.875 C-13.875 3.1875 -13.875 3.1875 -11.3125 1.53125 C-7.41616775 0.0081383 -4.10688106 -0.1552019 0 0 Z " fill="#5F5F5F" transform="translate(527.875,94.8125)"/>
<path d="M0 0 C0.66 0.33 1.32 0.66 2 1 C0.88121617 2.17262904 -0.24523051 3.33795138 -1.375 4.5 C-2.00148438 5.1496875 -2.62796875 5.799375 -3.2734375 6.46875 C-5 8 -5 8 -7 8 C-7.33 8.66 -7.66 9.32 -8 10 C-7.44449305 6.40094092 -6.25112752 5.00090201 -3.4375 2.75 C-2.79683594 2.22921875 -2.15617187 1.7084375 -1.49609375 1.171875 C-1.00238281 0.78515625 -0.50867188 0.3984375 0 0 Z " fill="#FB4C4C" transform="translate(113,61)"/>
<path d="M0 0 C2.64 0.33 5.28 0.66 8 1 C8 1.66 8 2.32 8 3 C5.03 2.67 2.06 2.34 -1 2 C-0.67 1.34 -0.34 0.68 0 0 Z " fill="#E80708" transform="translate(121,185)"/>
<path d="M0 0 C0 0.33 0 0.66 0 1 C-0.928125 1.268125 -1.85625 1.53625 -2.8125 1.8125 C-5.8311641 2.93710035 -6.9155143 3.70706573 -9 6 C-9.66 6 -10.32 6 -11 6 C-8.60159776 0.46522561 -5.82500047 -0.25888891 0 0 Z " fill="#BCBCBC" transform="translate(711,107)"/>
<path d="M0 0 C2.875 0.25 2.875 0.25 6 1 C7.375 3.0625 7.375 3.0625 8 5 C4.62496331 3.8141763 2.35277269 2.72426311 0 0 Z " fill="#E52424" transform="translate(197,104)"/>
</svg>
