<?xml version="1.0" standalone="no"?>
<!DOCTYPE svg PUBLIC "-//W3C//DTD SVG 20010904//EN"
 "http://www.w3.org/TR/2001/REC-SVG-20010904/DTD/svg10.dtd">
<svg version="1.0" xmlns="http://www.w3.org/2000/svg"
 width="866.000000pt" height="259.000000pt" viewBox="0 0 866.000000 259.000000"
 preserveAspectRatio="xMidYMid meet">

<g transform="translate(0.000000,259.000000) scale(0.100000,-0.100000)"
fill="#000000" stroke="none">
<path d="M8014 2417 c-2 -7 -3 -113 -2 -237 l3 -224 25 0 25 0 3 237 2 237
-25 0 c-14 0 -28 -6 -31 -13z"/>
<path d="M8214 2417 c-2 -7 -3 -113 -2 -237 l3 -224 25 0 25 0 5 192 5 192
120 -192 c107 -171 123 -191 148 -193 l27 -1 0 238 0 238 -25 0 -25 0 0 -180
c0 -99 -3 -180 -7 -180 -5 1 -59 82 -121 180 -105 167 -116 180 -143 180 -16
0 -32 -6 -35 -13z"/>
<path d="M1470 2029 c-151 -7 -245 -19 -294 -38 -78 -31 -147 -123 -161 -216
-18 -118 -23 -221 -23 -420 0 -494 42 -607 241 -644 175 -32 1078 -40 1355
-11 299 31 346 122 345 670 -1 494 -43 602 -253 640 -145 26 -842 37 -1210 19z
m555 -517 c49 -30 119 -70 156 -88 80 -41 97 -58 79 -79 -15 -18 -183 -115
-199 -115 -6 0 -11 -4 -11 -9 0 -5 -9 -12 -20 -16 -19 -6 -75 -39 -175 -103
-61 -39 -92 -41 -101 -8 -3 14 -3 136 0 273 3 136 5 258 6 271 0 23 3 22 88
-24 48 -26 127 -72 177 -102z"/>
<path d="M5905 1944 c-16 -12 -19 -27 -20 -94 0 -94 12 -109 88 -110 38 0 53
5 72 25 21 20 25 34 25 87 0 90 -15 108 -88 108 -35 -1 -65 -7 -77 -16z"/>
<path d="M3270 1360 l0 -580 85 0 85 0 0 205 c0 188 1 205 18 206 148 9 203
30 269 101 64 70 78 125 78 303 0 168 -11 214 -68 273 -56 58 -115 72 -302 72
l-165 0 0 -580z m301 427 c61 -41 85 -194 52 -332 -23 -98 -54 -129 -125 -130
l-53 0 -3 243 -2 242 48 0 c34 0 59 -7 83 -23z"/>
<path d="M4184 1630 c-32 -14 -47 -29 -65 -67 -13 -26 -33 -60 -45 -75 l-22
-28 -7 78 c-4 42 -13 80 -19 84 -15 10 -88 10 -104 -1 -11 -7 -14 -89 -15
-425 l-2 -416 83 0 82 0 0 300 0 301 25 24 c13 14 37 26 52 27 55 4 78 5 89 7
15 1 25 181 11 199 -12 15 -12 15 -63 -8z"/>
<path d="M4479 1626 c-54 -9 -70 -17 -96 -45 -16 -19 -38 -60 -47 -90 -10 -31
-22 -70 -27 -87 -12 -42 -12 -411 1 -419 6 -3 10 -17 10 -30 0 -40 31 -108 65
-141 56 -56 214 -66 304 -20 62 32 101 105 101 189 l0 38 -72 -3 -73 -3 -3
-42 c-4 -55 -39 -93 -85 -93 -20 0 -41 7 -51 19 -19 21 -36 110 -36 188 l0 53
163 2 162 3 0 150 c-1 117 -5 162 -19 205 -21 65 -68 118 -110 124 -82 13
-126 13 -187 2z m115 -119 c28 -21 46 -85 46 -169 0 -90 -7 -98 -87 -98 -81 0
-87 10 -80 130 7 121 21 150 70 150 18 0 41 -6 51 -13z"/>
<path d="M5213 1629 c-44 -9 -55 -16 -77 -50 -19 -27 -33 -39 -51 -39 -20 0
-25 6 -32 43 -8 39 -11 42 -43 45 -18 2 -49 1 -67 -3 l-33 -6 0 -420 0 -420
88 3 87 3 0 340 c0 187 4 346 8 353 14 22 68 44 93 38 13 -4 33 -16 44 -28 19
-21 20 -34 20 -365 l0 -344 85 3 86 3 2 341 c2 315 3 343 20 362 40 44 111 35
135 -15 9 -20 12 -115 12 -360 l0 -333 85 0 85 0 0 371 0 371 -27 49 c-22 41
-33 51 -67 60 -58 16 -155 -2 -178 -33 -35 -45 -40 -49 -61 -46 -12 2 -27 15
-34 29 -7 15 -19 31 -25 37 -20 16 -98 21 -155 11z"/>
<path d="M7135 1631 c-42 -10 -58 -21 -90 -58 -16 -20 -36 -33 -50 -33 -20 0
-25 7 -32 43 l-9 42 -61 0 c-34 0 -64 -3 -67 -6 -3 -3 -6 -192 -6 -420 l-1
-414 90 -3 91 -3 0 340 c0 187 3 347 6 356 8 19 55 45 82 45 11 0 31 -12 46
-26 l26 -27 0 -343 0 -344 90 0 90 0 0 339 c0 187 3 347 6 356 8 19 55 45 82
45 11 0 31 -12 46 -26 l26 -27 0 -343 0 -344 91 0 90 0 -3 373 c-3 403 -6 426
-60 460 -61 39 -180 27 -225 -23 -37 -42 -63 -42 -94 1 -34 45 -87 58 -164 40z"/>
<path d="M5953 1623 l-63 -4 0 -419 0 -420 85 0 85 0 -2 423 c-3 414 -3 422
-23 423 -11 0 -48 -1 -82 -3z"/>
<path d="M6187 1621 c-2 -3 -4 -150 -6 -326 -3 -370 6 -449 58 -496 63 -58
167 -46 240 27 48 48 51 50 51 31 0 -8 7 -28 16 -45 15 -31 18 -32 80 -32 l64
0 0 419 0 418 -77 6 c-43 3 -82 2 -86 -2 -5 -5 -8 -159 -8 -342 1 -355 2 -347
-49 -382 -32 -22 -49 -21 -80 4 l-25 21 -5 352 -5 351 -83 1 c-45 1 -83 -1
-85 -5z"/>
</g>
</svg>
